File size : 710 MiB
Duration : 1h 39mn
Overall bit rate : 1 002 Kbps

Video
ID : 0
Format : MPEG-4 Visual
Format profile : Advanced Simple@L5
Format settings, BVOP : Yes
Format settings, QPel : No
Format settings, GMC : No warppoints
Format settings, Matrix : Default (H.263)
Codec ID : XVID
Codec ID/Hint : XviD
Duration : 1h 39mn
Bit rate : 871 Kbps
Width : 640 pixels
Height : 272 pixels
Display aspect ratio : 2.35:1
Frame rate : 23.976 fps
Resolution : 8 bits
Colorimetry : 4:2:0
Scan type : Progressive
Bits/(Pixel*Frame) : 0.209
Stream size : 617 MiB (87%)
Writing library : XviD 1.2.1 (UTC 2008-12-04)

Audio
ID : 1
Format : MPEG Audio
Format version : Version 1
Format profile : Layer 3
Mode : Joint stereo
Format_Settings_ModeExtension : MS Stereo
Codec ID : 55
Codec ID/Hint : MP3
Duration : 1h 39mn
Bit rate mode : Constant
Bit rate : 128 Kbps
Channel(s) : 2 channels
Sampling rate : 48.0 KHz
Stream size : 90.7 MiB (13%)
Alignment : Aligned on interleaves
Interleave, duration : 829 ms (19.88 video frames)
Interleave, preload duration : 216 ms
Title : VTS_01_1 T80 3_2ch 384Kbps DELAY 0ms
Writing library : LAME3.98r
Encoding settings : -m j -V 4 -q 2 -lowpass 17 -b 128


Imdb Link:http://www.imdb.com/title/tt0979434/


Bow Wow ... Kevin Carson
Brandon T. Jackson ... Benny
Naturi Naughton ... Stacie
Loretta Devine ... Grandma
Ice Cube ... Mr. Washington
Keith David ... Sweet Tee
Terry Crews ... Jimmy the Driver
Mike Epps ... Reverend Taylor
Charles Q. Murphy ... Semaj (as Charlie Murphy)
Bill Bellamy ... Giovanni
Gbenga Akinnagbe ... Lorenzo
Chris Williams ... Doug
Vince Green ... Malik


Kevin Carson is a young man living in the projects who has to survive a three-day weekend after his opportunistic neighbors find out he's holding a winning lottery ticket worth $370 million.


Sample Provided


Greets:

BADASS,PrisM,DiGiTaL iNK,ViSiON,LEGi0N,FLAWL3SS,Rx,Hibees,xXTHORNXx,Noir,IMAGiNE
PDU,ELEKTRI4KA,KART3LDVD,CTFX,202122, StevieL,skrufern +
All the people that make p2p what it is...THANKS 